<svg width="1920" height="858" viewBox="0 0 1920 858" fill="none" xmlns="http://www.w3.org/2000/svg">
<rect x="0.5" y="0.5" width="1919" height="857" fill="white" stroke="black"/>
<rect x="-0.5" y="0.5" width="1919" height="857" fill="#011D43" stroke="black"/>
<g opacity="0.5">
<g filter="url(#filter0_di_3592_7980)">
<rect x="205" y="219.991" width="405" height="316.009" rx="10" fill="white"/>
</g>
</g>
<path d="M321.737 496.211L321.719 494.295L326.289 490.094C327.485 488.951 328.117 488.248 328.117 487.246C328.117 486.121 327.256 485.418 326.096 485.418C324.901 485.418 324.127 486.174 324.127 487.387H321.613C321.596 484.891 323.442 483.309 326.131 483.309C328.856 483.309 330.666 484.855 330.666 487.07C330.666 488.512 329.963 489.707 327.344 492.08L325.41 493.961V494.031H330.842V496.211H321.737ZM333.514 511.656V513.449H327.291V518.828H325.076V513.449H318.924V511.656H333.514ZM332.213 503.676V505.434H327.555C327.775 506.998 329.541 508.571 332.828 508.967L332.02 510.725C329.207 510.347 327.195 509.143 326.237 507.49C325.252 509.143 323.257 510.347 320.471 510.725L319.645 508.967C322.879 508.571 324.663 506.998 324.918 505.434H320.242V503.676H332.213Z" fill="#222222"/>
<line opacity="0.5" x1="325.523" y1="444.681" x2="325.523" y2="315.339" stroke="#B1B1B1" stroke-width="0.5"/>
<path d="M254.485 483.484V496.211H251.83V485.998H251.76L248.842 487.826V485.488L251.989 483.484H254.485ZM259.503 511.656V513.449H253.281V518.828H251.066V513.449H244.913V511.656H259.503ZM258.203 503.676V505.434H253.544C253.764 506.998 255.531 508.571 258.818 508.967L258.009 510.725C255.197 510.347 253.184 509.143 252.226 507.49C251.242 509.143 249.246 510.347 246.46 510.725L245.634 508.967C248.869 508.571 250.653 506.998 250.908 505.434H246.232V503.676H258.203Z" fill="#222222"/>
<line opacity="0.5" x1="251.969" y1="444.681" x2="251.969" y2="315.339" stroke="#B1B1B1" stroke-width="0.5"/>
<path d="M475.019 493.961V491.869L480.398 483.484H483.72V491.834H485.337V493.961H483.72V496.211H481.206V493.961H475.019ZM477.691 491.834H481.241V486.385H481.118L477.691 491.729V491.834ZM487.429 511.656V513.449H481.206V518.828H478.991V513.449H472.839V511.656H487.429ZM486.128 503.676V505.434H481.47C481.69 506.998 483.456 508.571 486.743 508.967L485.935 510.725C483.122 510.347 481.109 509.143 480.151 507.49C479.167 509.143 477.172 510.347 474.386 510.725L473.56 508.967C476.794 508.571 478.578 506.998 478.833 505.434H474.157V503.676H486.128Z" fill="#222222"/>
<path d="M402.928 496.387C400.133 496.387 398.129 494.84 398.076 492.625H400.748C400.801 493.574 401.715 494.207 402.945 494.207C404.211 494.207 405.125 493.486 405.108 492.467C405.125 491.43 404.193 490.691 402.699 490.691H401.522V488.74H402.699C403.947 488.74 404.826 488.055 404.826 487.053C404.826 486.086 404.088 485.418 402.963 485.418C401.838 485.418 400.906 486.051 400.871 487.018H398.34C398.375 484.82 400.361 483.309 402.963 483.309C405.617 483.309 407.393 484.873 407.375 486.895C407.393 488.318 406.391 489.338 404.967 489.584V489.689C406.83 489.918 407.867 491.061 407.85 492.643C407.867 494.822 405.793 496.387 402.928 496.387ZM410.249 511.656V513.449H404.026V518.828H401.812V513.449H395.659V511.656H410.249ZM408.948 503.676V505.434H404.29C404.51 506.998 406.276 508.571 409.564 508.967L408.755 510.725C405.942 510.347 403.93 509.143 402.972 507.49C401.987 509.143 399.992 510.347 397.206 510.725L396.38 508.967C399.614 508.571 401.399 506.998 401.653 505.434H396.978V503.676H408.948Z" fill="#222222"/>
<line opacity="0.5" x1="402.711" y1="444.681" x2="402.711" y2="315.339" stroke="#B1B1B1" stroke-width="0.5"/>
<line opacity="0.5" x1="479.898" y1="444.681" x2="479.898" y2="315.339" stroke="#B1B1B1" stroke-width="0.5"/>
<path d="M556.911 496.387C554.257 496.387 552.323 494.822 552.271 492.625H554.837C554.89 493.627 555.804 494.295 556.911 494.295C558.23 494.295 559.161 493.363 559.161 492.045C559.161 490.691 558.212 489.76 556.876 489.742C555.927 489.742 555.259 490.094 554.872 490.814H552.482L553.167 483.484H561.007V485.646H555.347L554.995 488.863H555.101C555.575 488.23 556.525 487.791 557.65 487.791C559.987 487.791 561.728 489.531 561.728 491.975C561.728 494.541 559.777 496.387 556.911 496.387ZM564.162 511.656V513.449H557.94V518.828H555.725V513.449H549.572V511.656H564.162ZM562.862 503.676V505.434H558.203C558.423 506.998 560.19 508.571 563.477 508.967L562.668 510.725C559.856 510.347 557.843 509.143 556.885 507.49C555.901 509.143 553.905 510.347 551.119 510.725L550.293 508.967C553.528 508.571 555.312 506.998 555.567 505.434H550.891V503.676H562.862Z" fill="#222222"/>
<line x1="556.172" y1="444.681" x2="556.172" y2="315.339" stroke="#001DFF" stroke-width="0.5"/>
<rect x="244.953" y="346.213" width="14.5291" height="98.9798" rx="7.26457" fill="#7D7D7D"/>
<rect x="318.508" y="336.621" width="14.5291" height="108.061" rx="7.26457" fill="#7D7D7D"/>
<rect x="395.695" y="336.621" width="14.5291" height="108.061" rx="7.26457" fill="#7D7D7D"/>
<rect x="472.883" y="360.23" width="14.5291" height="84.4507" rx="7.26457" fill="#7D7D7D"/>
<path d="M252.219 348.029L325.773 338.04H402.505L481.053 360.288" stroke="#001DFF"/>
<path d="M224.172 260V258.164L229.172 253.34C230.598 251.914 231.34 251.074 231.34 249.883C231.34 248.574 230.305 247.734 228.918 247.734C227.453 247.734 226.516 248.652 226.535 250.078H224.113C224.094 247.402 226.105 245.664 228.938 245.664C231.828 245.664 233.781 247.383 233.781 249.765C233.781 251.367 233 252.656 230.227 255.273L227.707 257.773V257.871H233.996V260H224.172ZM235.656 257.363V255.332L241.77 245.859H244.934V255.273H246.789V257.363H244.934V260H242.512V257.363H235.656ZM238.254 255.273H242.551V248.75H242.395L238.254 255.176V255.273ZM263.02 244.101V257.109H260.852V251.23H256.242V249.511H260.852V247.91H256.242V246.191H260.852V244.101H263.02ZM263.469 259.629V261.386H251.418V255.957H253.605V259.629H263.469ZM251.398 245.273V252.91C253.645 252.881 255.764 252.744 258.137 252.324L258.352 254.082C255.637 254.59 253.254 254.687 250.637 254.707H249.25V245.273H251.398ZM276.594 245.859V260H274.035V248.34H273.957L270.656 250.449V248.125L274.152 245.859H276.594ZM285.773 245.859V260H283.215V248.34H283.137L279.836 250.449V248.125L283.332 245.859H285.773ZM303.43 244.101V254.394H301.242V253.672H297.941V252.344H301.242V244.101H303.43ZM288.605 250.469C292.023 250.469 296.281 250.429 300.07 250.058L300.188 251.426C298.576 251.65 296.916 251.787 295.285 251.855V254.414H293.137V251.953C291.623 251.992 290.168 252.002 288.84 251.992L288.605 250.469ZM303.43 254.941V258.906H293.391V260.039H303.898V261.582H291.262V257.48H301.281V256.426H291.184V254.941H303.43ZM294.309 244.375C296.926 244.375 298.723 245.429 298.723 247.031C298.723 248.672 296.926 249.668 294.309 249.668C291.633 249.668 289.855 248.672 289.855 247.031C289.855 245.429 291.633 244.375 294.309 244.375ZM294.309 245.82C292.824 245.82 291.906 246.289 291.926 247.031C291.906 247.773 292.824 248.222 294.309 248.222C295.754 248.222 296.691 247.773 296.691 247.031C296.691 246.289 295.754 245.82 294.309 245.82Z" fill="black"/>
<path d="M476.062 308.977C474.094 308.946 471.938 307.789 471.938 303.602C471.938 299.602 473.578 297.352 476.234 297.352C478.219 297.352 479.609 298.571 479.906 300.352H478.516C478.25 299.352 477.5 298.602 476.234 298.602C474.375 298.602 473.266 300.196 473.266 302.914H473.406C474.062 301.977 475.094 301.414 476.312 301.414C478.328 301.414 480 302.977 480 305.164C480 307.289 478.438 308.992 476.062 308.977ZM476.062 307.742C477.531 307.742 478.625 306.586 478.641 305.18C478.625 303.789 477.578 302.649 476.094 302.649C474.609 302.649 473.469 303.852 473.453 305.196C473.453 306.524 474.547 307.742 476.062 307.742ZM476.062 332.977C474.094 332.946 471.938 331.789 471.938 327.602C471.938 323.602 473.578 321.352 476.234 321.352C478.219 321.352 479.609 322.571 479.906 324.352H478.516C478.25 323.352 477.5 322.602 476.234 322.602C474.375 322.602 473.266 324.196 473.266 326.914H473.406C474.062 325.977 475.094 325.414 476.312 325.414C478.328 325.414 480 326.977 480 329.164C480 331.289 478.438 332.992 476.062 332.977ZM476.062 331.742C477.531 331.742 478.625 330.586 478.641 329.18C478.625 327.789 477.578 326.649 476.094 326.649C474.609 326.649 473.469 327.852 473.453 329.196C473.453 330.524 474.547 331.742 476.062 331.742Z" fill="#797979"/>
<path d="M559.641 303.367V304.602H554.688V303.367H559.641Z" fill="#797979"/>
<path d="M398.727 308.977C396.352 308.977 394.695 307.664 394.711 305.821C394.695 304.352 395.711 303.149 397.008 302.946V302.883C395.883 302.617 395.148 301.586 395.148 300.352C395.148 298.617 396.664 297.352 398.727 297.352C400.789 297.352 402.305 298.617 402.32 300.352C402.305 301.586 401.555 302.617 400.445 302.883V302.946C401.727 303.149 402.742 304.352 402.758 305.821C402.742 307.664 401.086 308.977 398.727 308.977ZM398.727 307.742C400.352 307.742 401.352 306.93 401.352 305.742C401.352 304.492 400.242 303.571 398.727 303.571C397.211 303.571 396.086 304.492 396.117 305.742C396.086 306.93 397.102 307.742 398.727 307.742ZM398.727 302.383C400.008 302.383 400.945 301.602 400.945 300.461C400.945 299.336 400.055 298.571 398.727 298.571C397.383 298.571 396.508 299.336 396.508 300.461C396.508 301.602 397.43 302.383 398.727 302.383ZM395.305 332.821L400.492 322.836V322.758H394.508V321.508H401.945V322.821L396.773 332.821H395.305Z" fill="#797979"/>
<path d="M321.539 308.977C319.164 308.977 317.508 307.664 317.523 305.821C317.508 304.352 318.523 303.149 319.82 302.946V302.883C318.695 302.617 317.961 301.586 317.961 300.352C317.961 298.617 319.477 297.352 321.539 297.352C323.602 297.352 325.117 298.617 325.133 300.352C325.117 301.586 324.367 302.617 323.258 302.883V302.946C324.539 303.149 325.555 304.352 325.57 305.821C325.555 307.664 323.898 308.977 321.539 308.977ZM321.539 307.742C323.164 307.742 324.164 306.93 324.164 305.742C324.164 304.492 323.055 303.571 321.539 303.571C320.023 303.571 318.898 304.492 318.93 305.742C318.898 306.93 319.914 307.742 321.539 307.742ZM321.539 302.383C322.82 302.383 323.758 301.602 323.758 300.461C323.758 299.336 322.867 298.571 321.539 298.571C320.195 298.571 319.32 299.336 319.32 300.461C319.32 301.602 320.242 302.383 321.539 302.383ZM321.695 332.977C319.727 332.946 317.57 331.789 317.57 327.602C317.57 323.602 319.211 321.352 321.867 321.352C323.852 321.352 325.242 322.571 325.539 324.352H324.148C323.883 323.352 323.133 322.602 321.867 322.602C320.008 322.602 318.898 324.196 318.898 326.914H319.039C319.695 325.977 320.727 325.414 321.945 325.414C323.961 325.414 325.633 326.977 325.633 329.164C325.633 331.289 324.07 332.992 321.695 332.977ZM321.695 331.742C323.164 331.742 324.258 330.586 324.273 329.18C324.258 327.789 323.211 326.649 321.727 326.649C320.242 326.649 319.102 327.852 319.086 329.196C319.086 330.524 320.18 331.742 321.695 331.742Z" fill="#797979"/>
<path d="M246.375 308.821L251.562 298.836V298.758H245.578V297.508H253.016V298.821L247.844 308.821H246.375ZM246.375 332.821L251.562 322.836V322.758H245.578V321.508H253.016V322.821L247.844 332.821H246.375Z" fill="#797979"/>
<g opacity="0.8">
<g filter="url(#filter1_di_3592_7980)">
<rect x="646" y="86.8988" width="446" height="348" rx="10" transform="rotate(-0.115458 646 86.8988)" fill="white"/>
</g>
<path d="M750.781 356.012V365.91H749.537V357.297H749.482L747.076 358.897V357.653L749.537 356.012H750.781ZM756.92 356.012V365.91H755.676V357.297H755.621L753.215 358.897V357.653L755.676 356.012H756.92Z" fill="#797979"/>
<path d="M758.845 374.531V381.035H760.937V382.899H758.845V390.528H756.577V374.531H758.845ZM745.854 386.01C747.023 386.01 748.386 386.01 749.81 385.975V384.604C748.104 384.27 746.997 383.189 747.015 381.703C746.997 379.91 748.614 378.698 750.952 378.698C753.237 378.698 754.872 379.91 754.89 381.703C754.872 383.189 753.747 384.279 752.06 384.604V385.887C753.325 385.825 754.6 385.72 755.786 385.553L755.927 387.188C752.517 387.821 748.86 387.838 746.153 387.838L745.854 386.01ZM755.663 376.307V378.065H746.171V376.307H749.81V374.619H752.06V376.307H755.663ZM750.952 380.403C749.862 380.403 749.124 380.877 749.142 381.703C749.124 382.547 749.862 383.004 750.952 383.004C752.007 383.004 752.728 382.547 752.728 381.703C752.728 380.877 752.007 380.403 750.952 380.403Z" fill="#222222"/>
<line opacity="0.5" x1="753.102" y1="333.885" x2="753.102" y2="191.449" stroke="#B1B1B1" stroke-width="0.5"/>
<path d="M694.781 356.012V365.91H693.537V357.297H693.482L691.076 358.897V357.653L693.537 356.012H694.781ZM700.66 366.047C698.459 366.047 697.201 364.201 697.201 360.961C697.201 357.748 698.486 355.875 700.66 355.875C702.834 355.875 704.119 357.748 704.119 360.961C704.119 364.201 702.848 366.047 700.66 366.047ZM700.66 364.953C702.082 364.953 702.916 363.518 702.916 360.961C702.916 358.405 702.082 356.942 700.66 356.942C699.238 356.942 698.391 358.405 698.391 360.961C698.391 363.518 699.225 364.953 700.66 364.953Z" fill="#797979"/>
<path d="M703.601 374.549V383.813H701.351V383.303H698.45V381.949H701.351V374.549H703.601ZM690.048 380.174C693.142 380.192 696.974 380.156 700.401 379.84L700.507 381.229C699.092 381.422 697.642 381.545 696.218 381.615V383.848H694.003V381.703C692.693 381.739 691.437 381.739 690.276 381.721L690.048 380.174ZM703.601 384.287V388.031H694.601V388.858H703.97V390.422H692.403V386.59H701.368V385.799H692.333V384.287H703.601ZM695.198 374.76C697.571 374.76 699.206 375.727 699.224 377.168C699.206 378.662 697.571 379.559 695.198 379.559C692.755 379.559 691.138 378.662 691.138 377.168C691.138 375.727 692.755 374.76 695.198 374.76ZM695.198 376.237C693.985 376.219 693.247 376.588 693.265 377.168C693.247 377.766 693.985 378.1 695.198 378.1C696.376 378.1 697.132 377.766 697.132 377.168C697.132 376.588 696.376 376.219 695.198 376.237Z" fill="#222222"/>
<line opacity="0.5" x1="697.102" y1="333.885" x2="697.102" y2="191.449" stroke="#B1B1B1" stroke-width="0.5"/>
<path d="M917.781 356.012V365.91H916.537V357.297H916.482L914.076 358.897V357.653L916.537 356.012H917.781ZM920.174 363.887V362.875L924.631 356.012H926.148V362.807H927.529V363.887H926.148V365.91H924.973V363.887H920.174ZM921.5 362.807H924.973V357.571H924.85L921.5 362.725V362.807Z" fill="#797979"/>
<path d="M926.95 375.252V376.535C926.95 377.783 926.95 379.172 926.581 381H928.69V382.811H914.048V381H924.313C924.665 379.401 924.709 378.161 924.718 377.045H915.841V375.252H926.95ZM926.897 384.498V390.352H915.788V384.498H926.897ZM917.985 386.256V388.559H924.665V386.256H917.985Z" fill="#222222"/>
<line opacity="0.5" x1="921.102" y1="333.885" x2="921.102" y2="191.449" stroke="#B1B1B1" stroke-width="0.5"/>
<path d="M805.781 356.012V365.91H804.537V357.297H804.482L802.076 358.897V357.653L804.537 356.012H805.781ZM808.42 365.91L808.406 365.008L811.783 361.453C812.959 360.209 813.52 359.539 813.52 358.623C813.52 357.612 812.658 356.942 811.551 356.942C810.375 356.942 809.623 357.694 809.623 358.801H808.461C808.447 357.051 809.801 355.875 811.592 355.875C813.383 355.875 814.668 357.078 814.668 358.623C814.668 359.731 814.148 360.592 812.398 362.397L810.129 364.735V364.817H814.846V365.91H808.42Z" fill="#797979"/>
<path d="M810.538 375.78C810.538 377.66 812.454 379.752 816.128 380.209L815.249 382.02C812.454 381.615 810.406 380.323 809.36 378.592C808.306 380.323 806.275 381.615 803.507 382.02L802.61 380.209C806.249 379.752 808.183 377.66 808.183 375.78V375.006H810.538V375.78ZM816.638 383.233V385.061H810.415V390.528H808.2V385.061H802.048V383.233H816.638Z" fill="#222222"/>
<line opacity="0.5" x1="809.102" y1="333.885" x2="809.102" y2="191.449" stroke="#B1B1B1" stroke-width="0.5"/>
<path d="M973.781 356.012V365.91H972.537V357.297H972.482L970.076 358.897V357.653L972.537 356.012H973.781ZM979.646 366.047C977.855 366.047 976.502 364.94 976.434 363.422H977.623C977.719 364.311 978.58 364.967 979.646 364.967C980.932 364.967 981.861 364.024 981.861 362.78C981.861 361.494 980.891 360.551 979.564 360.537C978.73 360.524 978.088 360.783 977.719 361.426H976.529L977.227 356.012H982.586V357.106H978.252L977.883 360.004H977.979C978.416 359.662 979.086 359.43 979.783 359.43C981.67 359.43 983.064 360.824 983.064 362.752C983.064 364.666 981.615 366.047 979.646 366.047Z" fill="#797979"/>
<path d="M983.091 382.459V384.235H978.485V386.942H984.69V388.735H970.048V386.942H976.218V384.235H971.771V375.639H982.968V377.432H974.056V379.031H982.599V380.789H974.056V382.459H983.091Z" fill="#222222"/>
<line opacity="0.5" x1="977.102" y1="333.885" x2="977.102" y2="191.449" stroke="#B1B1B1" stroke-width="0.5"/>
<path d="M861.781 356.012V365.91H860.537V357.297H860.482L858.076 358.897V357.653L860.537 356.012H861.781ZM867.838 366.047C865.869 366.047 864.461 364.994 864.393 363.422H865.637C865.705 364.365 866.648 364.953 867.824 364.953C869.123 364.953 870.08 364.242 870.08 363.217C870.08 362.137 869.219 361.371 867.674 361.371H866.867V360.291H867.674C868.877 360.291 869.711 359.621 869.711 358.596C869.711 357.612 868.986 356.942 867.865 356.942C866.812 356.942 865.842 357.53 865.787 358.5H864.598C864.666 356.928 866.115 355.875 867.879 355.875C869.766 355.875 870.914 357.106 870.9 358.528C870.914 359.649 870.258 360.483 869.219 360.77V360.838C870.504 361.043 871.297 361.959 871.283 363.217C871.297 364.844 869.807 366.047 867.838 366.047Z" fill="#797979"/>
<path d="M870.792 375.164V380.789H866.45V382.319H872.638V384.129H858.048V382.319H864.2V380.789H859.858V375.164H870.792ZM862.056 376.905V379.031H868.595V376.905H862.056ZM870.862 385.307V390.528H868.63V387.065H859.665V385.307H870.862Z" fill="#222222"/>
<line opacity="0.5" x1="865.102" y1="333.885" x2="865.102" y2="191.449" stroke="#B1B1B1" stroke-width="0.5"/>
<path d="M1029.78 356.012V365.91H1028.54V357.297H1028.48L1026.08 358.897V357.653L1028.54 356.012H1029.78ZM1035.87 366.047C1034.14 366.02 1032.26 365.008 1032.26 361.344C1032.26 357.844 1033.69 355.875 1036.02 355.875C1037.75 355.875 1038.97 356.942 1039.23 358.5H1038.01C1037.78 357.625 1037.12 356.969 1036.02 356.969C1034.39 356.969 1033.42 358.364 1033.42 360.742H1033.54C1034.12 359.922 1035.02 359.43 1036.08 359.43C1037.85 359.43 1039.31 360.797 1039.31 362.711C1039.31 364.571 1037.94 366.061 1035.87 366.047ZM1035.87 364.967C1037.15 364.967 1038.11 363.955 1038.12 362.725C1038.11 361.508 1037.19 360.51 1035.89 360.51C1034.59 360.51 1033.6 361.563 1033.58 362.739C1033.58 363.901 1034.54 364.967 1035.87 364.967Z" fill="#797979"/>
<path d="M1030.6 375.006C1033.03 375.006 1034.87 376.518 1034.87 378.662C1034.87 380.772 1033.03 382.301 1030.6 382.301C1028.12 382.301 1026.29 380.772 1026.29 378.662C1026.29 376.518 1028.12 375.006 1030.6 375.006ZM1030.6 376.834C1029.37 376.834 1028.46 377.502 1028.47 378.662C1028.46 379.805 1029.37 380.49 1030.6 380.49C1031.81 380.49 1032.71 379.805 1032.71 378.662C1032.71 377.502 1031.81 376.834 1030.6 376.834ZM1039.44 374.531V382.547H1037.19V374.531H1039.44ZM1039.44 383.215V387.557H1030.93V388.594H1039.88V390.352H1028.74V385.922H1037.21V384.938H1028.7V383.215H1039.44Z" fill="#222222"/>
<line x1="1033.1" y1="333.885" x2="1033.1" y2="191.449" stroke="#001DFF" stroke-width="0.5"/>
<circle cx="1032.35" cy="346.885" r="2" fill="#344BFD"/>
<rect x="689.352" y="265.885" width="16" height="68.1967" rx="8" fill="#7D7D7D"/>
<rect x="745.352" y="214.885" width="16" height="119" rx="8" fill="#7D7D7D"/>
<rect x="857.352" y="240.885" width="16" height="93" rx="8" fill="#7D7D7D"/>
<rect x="913.352" y="206.885" width="16" height="127" rx="8" fill="#7D7D7D"/>
<rect x="969.352" y="287.885" width="16" height="46" rx="8" fill="#7D7D7D"/>
<path d="M697.852 266.385L753.352 215.385L809.352 334.385L865.352 241.885L921.352 207.385L977.852 288.385" stroke="#001DFF"/>
<path d="M673.266 114.308V128.449H670.707V116.788H670.629L667.328 118.898V116.574L670.824 114.308H673.266ZM682.445 114.308V128.449H679.887V116.788H679.809L676.508 118.898V116.574L680.004 114.308H682.445ZM700.102 112.55V122.843H697.914V122.12H694.613V120.792H697.914V112.55H700.102ZM685.277 118.917C688.695 118.917 692.953 118.878 696.742 118.507L696.859 119.874C695.248 120.099 693.588 120.236 691.957 120.304V122.863H689.809V120.402C688.295 120.441 686.84 120.451 685.512 120.441L685.277 118.917ZM700.102 123.39V127.355H690.062V128.488H700.57V130.031H687.934V125.929H697.953V124.874H687.855V123.39H700.102ZM690.98 112.824C693.598 112.824 695.395 113.878 695.395 115.48C695.395 117.12 693.598 118.117 690.98 118.117C688.305 118.117 686.527 117.12 686.527 115.48C686.527 113.878 688.305 112.824 690.98 112.824ZM690.98 114.269C689.496 114.269 688.578 114.738 688.598 115.48C688.578 116.222 689.496 116.671 690.98 116.671C692.426 116.671 693.363 116.222 693.363 115.48C693.363 114.738 692.426 114.269 690.98 114.269ZM721.527 116.828V118.546H709.379V113.156H721.371V114.913H711.547V116.828H721.527ZM723.422 119.66V121.378H716.43V122.745H721.41V127.042H711.371V128.351H721.898V130.011H709.242V125.519H719.281V124.347H709.223V122.745H714.281V121.378H707.328V119.66H723.422ZM740.141 112.531V130.187H738.07V121.281H736.645V129.328H734.633V124.679L733.441 126.124C732.445 125.314 731.83 124.103 731.449 122.745C731.098 124.161 730.482 125.451 729.418 126.32C728.354 125.441 727.738 124.132 727.387 122.706C727.016 124.083 726.41 125.304 725.414 126.124L724.184 124.66C726.215 123.019 726.449 119.972 726.449 117.589V116.3H724.809V114.562H729.203V116.3H728.344V117.589C728.324 119.24 728.383 121.642 729.438 123.488C730.453 121.681 730.492 119.357 730.512 117.589V116.3H729.652V114.562H733.832V116.3H732.387V117.589C732.367 120.001 732.641 122.999 734.633 124.64V112.843H736.645V119.503H738.07V112.531H740.141ZM757.992 122.374V124.132H750.98V130.167H748.832V124.132H741.898V122.374H757.992ZM756.508 113.527V115.245H751.215C751.342 117.179 753.666 119.035 757.152 119.484L756.371 121.183C753.363 120.763 751.02 119.386 749.945 117.472C748.871 119.386 746.527 120.763 743.559 121.183L742.738 119.484C746.205 119.035 748.529 117.179 748.695 115.245H743.383V113.527H756.508Z" fill="black"/>
<path d="M777.414 116.136V127.449H775.992V117.605H775.93L773.18 119.433V118.011L775.992 116.136H777.414ZM784.43 116.136V127.449H783.008V117.605H782.945L780.195 119.433V118.011L783.008 116.136H784.43ZM791.492 115.605L787.836 129.152H786.617L790.258 115.605H791.492ZM796.789 116.136V127.449H795.367V117.605H795.305L792.555 119.433V118.011L795.367 116.136H796.789ZM803.508 127.605C800.992 127.605 799.555 125.495 799.555 121.792C799.555 118.12 801.023 115.98 803.508 115.98C805.992 115.98 807.461 118.12 807.461 121.792C807.461 125.495 806.008 127.605 803.508 127.605ZM803.508 126.355C805.133 126.355 806.086 124.714 806.086 121.792C806.086 118.87 805.133 117.199 803.508 117.199C801.883 117.199 800.914 118.87 800.914 121.792C800.914 124.714 801.867 126.355 803.508 126.355ZM813.805 121.62C814.305 121.042 814.93 120.73 815.617 120.73C816.805 120.73 817.883 121.636 819.023 121.636C819.727 121.636 820.336 121.292 820.805 120.652V121.949C820.289 122.542 819.68 122.839 818.992 122.839C817.805 122.839 816.727 121.933 815.57 121.933C814.883 121.933 814.273 122.277 813.805 122.917V121.62ZM831.398 116.136V127.449H829.977V117.605H829.914L827.164 119.433V118.011L829.977 116.136H831.398ZM838.414 116.136V127.449H836.992V117.605H836.93L834.18 119.433V118.011L836.992 116.136H838.414ZM845.477 115.605L841.82 129.152H840.602L844.242 115.605H845.477ZM850.773 116.136V127.449H849.352V117.605H849.289L846.539 119.433V118.011L849.352 116.136H850.773ZM857.727 127.605C855.758 127.574 853.602 126.417 853.602 122.23C853.602 118.23 855.242 115.98 857.898 115.98C859.883 115.98 861.273 117.199 861.57 118.98H860.18C859.914 117.98 859.164 117.23 857.898 117.23C856.039 117.23 854.93 118.824 854.93 121.542H855.07C855.727 120.605 856.758 120.042 857.977 120.042C859.992 120.042 861.664 121.605 861.664 123.792C861.664 125.917 860.102 127.62 857.727 127.605ZM857.727 126.37C859.195 126.37 860.289 125.214 860.305 123.808C860.289 122.417 859.242 121.277 857.758 121.277C856.273 121.277 855.133 122.48 855.117 123.824C855.117 125.152 856.211 126.37 857.727 126.37Z" fill="#797979"/>
<path d="M915.18 170.98C917.133 170.995 919.289 172.167 919.289 176.339C919.289 180.355 917.648 182.605 914.992 182.605C913.008 182.605 911.602 181.386 911.32 179.589H912.711C912.961 180.605 913.727 181.355 914.992 181.355C916.836 181.355 917.961 179.761 917.977 177.011H917.82C917.164 177.948 916.133 178.511 914.93 178.511C912.898 178.511 911.227 176.964 911.227 174.777C911.227 172.667 912.773 170.964 915.18 170.98ZM915.18 172.214C913.695 172.214 912.586 173.37 912.602 174.761C912.602 176.167 913.648 177.277 915.133 177.277C916.602 177.277 917.758 176.058 917.758 174.73C917.758 173.433 916.68 172.214 915.18 172.214ZM920.945 180.136V178.98L926.039 171.136H927.773V178.902H929.352V180.136H927.773V182.448H926.43V180.136H920.945ZM922.461 178.902H926.43V172.917H926.289L922.461 178.808V178.902Z" fill="#797979"/>
<path d="M971.32 182.605C969.07 182.605 967.461 181.402 967.383 179.605H968.805C968.883 180.683 969.961 181.355 971.305 181.355C972.789 181.355 973.883 180.542 973.883 179.37C973.883 178.136 972.898 177.261 971.133 177.261H970.211V176.027H971.133C972.508 176.027 973.461 175.261 973.461 174.089C973.461 172.964 972.633 172.198 971.352 172.198C970.148 172.198 969.039 172.87 968.977 173.98H967.617C967.695 172.183 969.352 170.98 971.367 170.98C973.523 170.98 974.836 172.386 974.82 174.011C974.836 175.292 974.086 176.245 972.898 176.573V176.652C974.367 176.886 975.273 177.933 975.258 179.37C975.273 181.23 973.57 182.605 971.32 182.605ZM981.289 171.136V182.448H979.867V172.605H979.805L977.055 174.433V173.011L979.867 171.136H981.289Z" fill="#797979"/>
<path d="M1036.29 176.995V178.23H1031.34V176.995H1036.29Z" fill="#797979"/>
<path d="M811.289 176.995V178.23H806.336V176.995H811.289Z" fill="#797979"/>
<path d="M859.352 182.605C857.383 182.573 855.227 181.417 855.227 177.23C855.227 173.23 856.867 170.98 859.523 170.98C861.508 170.98 862.898 172.198 863.195 173.98H861.805C861.539 172.98 860.789 172.23 859.523 172.23C857.664 172.23 856.555 173.823 856.555 176.542H856.695C857.352 175.605 858.383 175.042 859.602 175.042C861.617 175.042 863.289 176.605 863.289 178.792C863.289 180.917 861.727 182.62 859.352 182.605ZM859.352 181.37C860.82 181.37 861.914 180.214 861.93 178.808C861.914 177.417 860.867 176.277 859.383 176.277C857.898 176.277 856.758 177.48 856.742 178.823C856.742 180.152 857.836 181.37 859.352 181.37ZM869.133 182.605C866.883 182.605 865.273 181.402 865.195 179.605H866.617C866.695 180.683 867.773 181.355 869.117 181.355C870.602 181.355 871.695 180.542 871.695 179.37C871.695 178.136 870.711 177.261 868.945 177.261H868.023V176.027H868.945C870.32 176.027 871.273 175.261 871.273 174.089C871.273 172.964 870.445 172.198 869.164 172.198C867.961 172.198 866.852 172.87 866.789 173.98H865.43C865.508 172.183 867.164 170.98 869.18 170.98C871.336 170.98 872.648 172.386 872.633 174.011C872.648 175.292 871.898 176.245 870.711 176.573V176.652C872.18 176.886 873.086 177.933 873.07 179.37C873.086 181.23 871.383 182.605 869.133 182.605Z" fill="#797979"/>
<path d="M748.195 182.605C745.82 182.605 744.164 181.292 744.18 179.448C744.164 177.98 745.18 176.777 746.477 176.573V176.511C745.352 176.245 744.617 175.214 744.617 173.98C744.617 172.245 746.133 170.98 748.195 170.98C750.258 170.98 751.773 172.245 751.789 173.98C751.773 175.214 751.023 176.245 749.914 176.511V176.573C751.195 176.777 752.211 177.98 752.227 179.448C752.211 181.292 750.555 182.605 748.195 182.605ZM748.195 181.37C749.82 181.37 750.82 180.558 750.82 179.37C750.82 178.12 749.711 177.198 748.195 177.198C746.68 177.198 745.555 178.12 745.586 179.37C745.555 180.558 746.57 181.37 748.195 181.37ZM748.195 176.011C749.477 176.011 750.414 175.23 750.414 174.089C750.414 172.964 749.523 172.198 748.195 172.198C746.852 172.198 745.977 172.964 745.977 174.089C745.977 175.23 746.898 176.011 748.195 176.011ZM758.055 182.605C756.086 182.573 753.93 181.417 753.93 177.23C753.93 173.23 755.57 170.98 758.227 170.98C760.211 170.98 761.602 172.198 761.898 173.98H760.508C760.242 172.98 759.492 172.23 758.227 172.23C756.367 172.23 755.258 173.823 755.258 176.542H755.398C756.055 175.605 757.086 175.042 758.305 175.042C760.32 175.042 761.992 176.605 761.992 178.792C761.992 180.917 760.43 182.62 758.055 182.605ZM758.055 181.37C759.523 181.37 760.617 180.214 760.633 178.808C760.617 177.417 759.57 176.277 758.086 176.277C756.602 176.277 755.461 177.48 755.445 178.823C755.445 180.152 756.539 181.37 758.055 181.37Z" fill="#797979"/>
<path d="M690.133 180.136V178.98L695.227 171.136H696.961V178.902H698.539V180.136H696.961V182.448H695.617V180.136H690.133ZM691.648 178.902H695.617V172.917H695.477L691.648 178.808V178.902ZM704.102 182.605C701.586 182.605 700.148 180.495 700.148 176.792C700.148 173.12 701.617 170.98 704.102 170.98C706.586 170.98 708.055 173.12 708.055 176.792C708.055 180.495 706.602 182.605 704.102 182.605ZM704.102 181.355C705.727 181.355 706.68 179.714 706.68 176.792C706.68 173.87 705.727 172.198 704.102 172.198C702.477 172.198 701.508 173.87 701.508 176.792C701.508 179.714 702.461 181.355 704.102 181.355Z" fill="#797979"/>
</g>
<g filter="url(#filter2_di_3592_7980)">
<rect x="433" y="362" width="579" height="348" rx="10" fill="white"/>
</g>
<path d="M681.43 644.127V654.025H680.186V645.412H680.131L677.725 647.012V645.768L680.186 644.127H681.43ZM687.568 644.127V654.025H686.324V645.412H686.27L683.863 647.012V645.768L686.324 644.127H687.568Z" fill="#797979"/>
<path d="M689.493 662.646V669.15H691.585V671.014H689.493V678.643H687.226V662.646H689.493ZM676.503 674.125C677.672 674.125 679.034 674.125 680.458 674.09V672.719C678.753 672.385 677.646 671.304 677.663 669.818C677.646 668.025 679.263 666.812 681.601 666.812C683.886 666.812 685.521 668.025 685.538 669.818C685.521 671.304 684.396 672.394 682.708 672.719V674.002C683.974 673.94 685.248 673.835 686.435 673.668L686.575 675.303C683.165 675.936 679.509 675.953 676.802 675.953L676.503 674.125ZM686.312 664.422V666.18H676.819V664.422H680.458V662.734H682.708V664.422H686.312ZM681.601 668.518C680.511 668.518 679.772 668.992 679.79 669.818C679.772 670.662 680.511 671.119 681.601 671.119C682.655 671.119 683.376 670.662 683.376 669.818C683.376 668.992 682.655 668.518 681.601 668.518Z" fill="#222222"/>
<line opacity="0.5" x1="683.75" y1="622" x2="683.75" y2="479.564" stroke="#B1B1B1" stroke-width="0.5"/>
<path d="M625.43 644.127V654.025H624.186V645.412H624.131L621.725 647.012V645.768L624.186 644.127H625.43ZM631.309 654.162C629.107 654.162 627.85 652.316 627.85 649.076C627.85 645.863 629.135 643.99 631.309 643.99C633.482 643.99 634.768 645.863 634.768 649.076C634.768 652.316 633.496 654.162 631.309 654.162ZM631.309 653.068C632.73 653.068 633.564 651.633 633.564 649.076C633.564 646.52 632.73 645.057 631.309 645.057C629.887 645.057 629.039 646.52 629.039 649.076C629.039 651.633 629.873 653.068 631.309 653.068Z" fill="#797979"/>
<path d="M634.249 662.664V671.928H631.999V671.418H629.099V670.064H631.999V662.664H634.249ZM620.696 668.289C623.79 668.307 627.622 668.271 631.05 667.955L631.155 669.344C629.74 669.537 628.29 669.66 626.866 669.73V671.963H624.651V669.818C623.342 669.854 622.085 669.854 620.925 669.836L620.696 668.289ZM634.249 672.402V676.146H625.249V676.973H634.618V678.537H623.052V674.705H632.017V673.914H622.981V672.402H634.249ZM625.847 662.875C628.22 662.875 629.854 663.842 629.872 665.283C629.854 666.777 628.22 667.674 625.847 667.674C623.403 667.674 621.786 666.777 621.786 665.283C621.786 663.842 623.403 662.875 625.847 662.875ZM625.847 664.352C624.634 664.334 623.896 664.703 623.913 665.283C623.896 665.881 624.634 666.215 625.847 666.215C627.024 666.215 627.78 665.881 627.78 665.283C627.78 664.703 627.024 664.334 625.847 664.352Z" fill="#222222"/>
<line opacity="0.5" x1="627.75" y1="622" x2="627.75" y2="479.564" stroke="#B1B1B1" stroke-width="0.5"/>
<line opacity="0.5" x1="563.75" y1="710" x2="563.75" y2="362" stroke="#B1B1B1" stroke-width="0.5"/>
<line opacity="0.5" x1="564" y1="422.25" x2="432" y2="422.25" stroke="#B1B1B1" stroke-width="0.5"/>
<line opacity="0.5" x1="564" y1="471.25" x2="432" y2="471.25" stroke="#B1B1B1" stroke-width="0.5"/>
<line opacity="0.5" x1="564" y1="520.25" x2="432" y2="520.25" stroke="#B1B1B1" stroke-width="0.5"/>
<line opacity="0.5" x1="564" y1="569.25" x2="432" y2="569.25" stroke="#B1B1B1" stroke-width="0.5"/>
<line opacity="0.5" x1="564" y1="618.25" x2="432" y2="618.25" stroke="#B1B1B1" stroke-width="0.5"/>
<path d="M848.43 644.127V654.025H847.186V645.412H847.131L844.725 647.012V645.768L847.186 644.127H848.43ZM850.822 652.002V650.99L855.279 644.127H856.797V650.922H858.178V652.002H856.797V654.025H855.621V652.002H850.822ZM852.148 650.922H855.621V645.686H855.498L852.148 650.84V650.922Z" fill="#797979"/>
<path d="M857.599 663.367V664.65C857.599 665.898 857.599 667.287 857.229 669.115H859.339V670.926H844.696V669.115H854.962C855.313 667.516 855.357 666.276 855.366 665.16H846.489V663.367H857.599ZM857.546 672.613V678.467H846.437V672.613H857.546ZM848.634 674.371V676.674H855.313V674.371H848.634Z" fill="#222222"/>
<line opacity="0.5" x1="851.75" y1="622" x2="851.75" y2="479.564" stroke="#B1B1B1" stroke-width="0.5"/>
<path d="M736.43 644.127V654.025H735.186V645.412H735.131L732.725 647.012V645.768L735.186 644.127H736.43ZM739.068 654.025L739.055 653.123L742.432 649.568C743.607 648.324 744.168 647.654 744.168 646.738C744.168 645.727 743.307 645.057 742.199 645.057C741.023 645.057 740.271 645.809 740.271 646.916H739.109C739.096 645.166 740.449 643.99 742.24 643.99C744.031 643.99 745.316 645.193 745.316 646.738C745.316 647.846 744.797 648.707 743.047 650.512L740.777 652.85V652.932H745.494V654.025H739.068Z" fill="#797979"/>
<path d="M741.187 663.895C741.187 665.775 743.103 667.867 746.776 668.324L745.897 670.135C743.103 669.73 741.055 668.438 740.009 666.707C738.954 668.438 736.924 669.73 734.155 670.135L733.259 668.324C736.897 667.867 738.831 665.775 738.831 663.895V663.121H741.187V663.895ZM747.286 671.348V673.176H741.063V678.643H738.849V673.176H732.696V671.348H747.286Z" fill="#222222"/>
<line opacity="0.5" x1="739.75" y1="622" x2="739.75" y2="479.564" stroke="#B1B1B1" stroke-width="0.5"/>
<path d="M904.43 644.127V654.025H903.186V645.412H903.131L900.725 647.012V645.768L903.186 644.127H904.43ZM910.295 654.162C908.504 654.162 907.15 653.055 907.082 651.537H908.271C908.367 652.426 909.229 653.082 910.295 653.082C911.58 653.082 912.51 652.139 912.51 650.895C912.51 649.609 911.539 648.666 910.213 648.652C909.379 648.639 908.736 648.898 908.367 649.541H907.178L907.875 644.127H913.234V645.221H908.9L908.531 648.119H908.627C909.064 647.777 909.734 647.545 910.432 647.545C912.318 647.545 913.713 648.939 913.713 650.867C913.713 652.781 912.264 654.162 910.295 654.162Z" fill="#797979"/>
<path d="M913.739 670.574V672.35H909.134V675.057H915.339V676.85H900.696V675.057H906.866V672.35H902.419V663.754H913.616V665.547H904.704V667.146H913.247V668.904H904.704V670.574H913.739Z" fill="#222222"/>
<line opacity="0.5" x1="907.75" y1="622" x2="907.75" y2="479.564" stroke="#B1B1B1" stroke-width="0.5"/>
<path d="M792.43 644.127V654.025H791.186V645.412H791.131L788.725 647.012V645.768L791.186 644.127H792.43ZM798.486 654.162C796.518 654.162 795.109 653.109 795.041 651.537H796.285C796.354 652.48 797.297 653.068 798.473 653.068C799.771 653.068 800.729 652.357 800.729 651.332C800.729 650.252 799.867 649.486 798.322 649.486H797.516V648.406H798.322C799.525 648.406 800.359 647.736 800.359 646.711C800.359 645.727 799.635 645.057 798.514 645.057C797.461 645.057 796.49 645.645 796.436 646.615H795.246C795.314 645.043 796.764 643.99 798.527 643.99C800.414 643.99 801.562 645.221 801.549 646.643C801.562 647.764 800.906 648.598 799.867 648.885V648.953C801.152 649.158 801.945 650.074 801.932 651.332C801.945 652.959 800.455 654.162 798.486 654.162Z" fill="#797979"/>
<path d="M801.44 663.279V668.904H797.099V670.434H803.286V672.244H788.696V670.434H794.849V668.904H790.507V663.279H801.44ZM792.704 665.02V667.146H799.243V665.02H792.704ZM801.511 673.422V678.643H799.278V675.18H790.313V673.422H801.511Z" fill="#222222"/>
<line opacity="0.5" x1="795.75" y1="622" x2="795.75" y2="479.564" stroke="#B1B1B1" stroke-width="0.5"/>
<path d="M960.43 644.127V654.025H959.186V645.412H959.131L956.725 647.012V645.768L959.186 644.127H960.43ZM966.514 654.162C964.791 654.135 962.904 653.123 962.904 649.459C962.904 645.959 964.34 643.99 966.664 643.99C968.4 643.99 969.617 645.057 969.877 646.615H968.66C968.428 645.74 967.771 645.084 966.664 645.084C965.037 645.084 964.066 646.479 964.066 648.857H964.189C964.764 648.037 965.666 647.545 966.732 647.545C968.496 647.545 969.959 648.912 969.959 650.826C969.959 652.686 968.592 654.176 966.514 654.162ZM966.514 653.082C967.799 653.082 968.756 652.07 968.77 650.84C968.756 649.623 967.84 648.625 966.541 648.625C965.242 648.625 964.244 649.678 964.23 650.854C964.23 652.016 965.188 653.082 966.514 653.082Z" fill="#797979"/>
<path d="M961.249 663.121C963.675 663.121 965.521 664.633 965.521 666.777C965.521 668.887 963.675 670.416 961.249 670.416C958.771 670.416 956.942 668.887 956.942 666.777C956.942 664.633 958.771 663.121 961.249 663.121ZM961.249 664.949C960.019 664.949 959.104 665.617 959.122 666.777C959.104 667.92 960.019 668.605 961.249 668.605C962.462 668.605 963.358 667.92 963.358 666.777C963.358 665.617 962.462 664.949 961.249 664.949ZM970.091 662.646V670.662H967.841V662.646H970.091ZM970.091 671.33V675.672H961.583V676.709H970.53V678.467H959.386V674.037H967.858V673.053H959.351V671.33H970.091Z" fill="#222222"/>
<line x1="963.75" y1="622" x2="963.75" y2="479.564" stroke="#001DFF" stroke-width="0.5"/>
<circle cx="963" cy="635" r="2" fill="#344BFD"/>
<rect x="620" y="554" width="16" height="68.1967" rx="8" fill="#7D7D7D"/>
<rect x="676" y="503" width="16" height="119" rx="8" fill="#7D7D7D"/>
<rect x="788" y="529" width="16" height="93" rx="8" fill="#7D7D7D"/>
<rect x="844" y="495" width="16" height="127" rx="8" fill="#7D7D7D"/>
<rect x="900" y="576" width="16" height="46" rx="8" fill="#7D7D7D"/>
<path d="M628.5 554.5L684 503.5L740 622.5L796 530L852 495.5L908.5 576.5" stroke="#001DFF"/>
<circle cx="469" cy="398" r="12" fill="#D9D9D9"/>
<circle cx="469" cy="447" r="12" fill="#D9D9D9"/>
<circle cx="469" cy="496" r="12" fill="#D9D9D9"/>
<circle cx="469" cy="545" r="12" fill="#D9D9D9"/>
<circle cx="469" cy="594" r="12" fill="#D9D9D9"/>
<path d="M498.467 391.3C498.467 395.284 495.86 398.007 491.345 399.169L490.531 397.525C493.926 396.662 495.86 394.977 496.192 392.943H491.411V391.3H498.467ZM503.099 390.437V398.87H500.974V390.437H503.099ZM503.099 399.484V405.345H493.021V399.484H503.099ZM495.13 401.145V403.685H501.023V401.145H495.13ZM518.92 397.575V399.269H505.141V397.575H508.245V395.766C507.141 395.276 506.519 394.529 506.519 393.558C506.519 391.731 508.66 390.636 512.03 390.636C515.367 390.636 517.509 391.731 517.525 393.558C517.517 394.537 516.87 395.301 515.749 395.782V397.575H518.92ZM512.014 400.065C515.284 400.065 517.26 401.028 517.276 402.771C517.26 404.548 515.284 405.511 512.014 405.511C508.693 405.511 506.718 404.548 506.718 402.771C506.718 401.028 508.693 400.065 512.014 400.065ZM512.014 401.659C509.922 401.659 508.859 402.024 508.876 402.771C508.859 403.552 509.922 403.934 512.014 403.934C514.056 403.934 515.135 403.552 515.151 402.771C515.135 402.024 514.056 401.659 512.014 401.659ZM512.03 392.263C509.889 392.263 508.71 392.711 508.727 393.558C508.71 394.388 509.889 394.803 512.03 394.803C514.139 394.803 515.334 394.388 515.334 393.558C515.334 392.711 514.139 392.263 512.03 392.263ZM510.387 397.575H513.641V396.313C513.143 396.372 512.603 396.396 512.03 396.396C511.441 396.396 510.893 396.372 510.387 396.297V397.575ZM532.367 391.067V392.728H528.2C528.449 393.973 530.01 395.234 532.998 395.566L532.218 397.227C529.387 396.911 527.495 395.732 526.706 394.172C525.909 395.724 524.033 396.911 521.211 397.227L520.447 395.566C523.436 395.234 524.979 393.956 525.229 392.728H521.095V391.067H532.367ZM533.646 397.94V399.634H527.951V402.24H525.859V399.634H519.816V397.94H533.646ZM532.118 403.568V405.262H521.443V400.896H523.552V403.568H532.118Z" fill="black"/>
<circle cx="637" cy="399" r="17" fill="#ECEAF8"/>
<path d="M637.002 407.58C641.733 407.58 645.582 403.731 645.582 399C645.582 394.269 641.733 390.42 637.002 390.42C632.271 390.42 628.422 394.269 628.422 399C628.422 403.731 632.271 407.58 637.002 407.58ZM639.999 396.426C640.17 396.421 640.34 396.451 640.499 396.514C640.659 396.576 640.804 396.67 640.926 396.789C641.049 396.909 641.146 397.052 641.213 397.209C641.279 397.367 641.313 397.537 641.313 397.708C641.313 397.879 641.279 398.048 641.212 398.206C641.146 398.363 641.048 398.506 640.926 398.626C640.803 398.745 640.658 398.839 640.498 398.901C640.339 398.963 640.169 398.993 639.998 398.989C639.664 398.98 639.346 398.841 639.113 398.601C638.88 398.362 638.749 398.041 638.75 397.707C638.75 397.373 638.88 397.052 639.114 396.812C639.347 396.573 639.665 396.434 639.999 396.426ZM636.308 402.362C636.766 402.454 637.237 402.454 637.695 402.362C637.912 402.318 638.128 402.25 638.338 402.162C638.539 402.076 638.737 401.97 638.921 401.847C639.099 401.725 639.27 401.584 639.428 401.427C639.585 401.271 639.726 401.1 639.848 400.919L641.27 401.877C640.9 402.426 640.429 402.898 639.881 403.268C639.323 403.645 638.697 403.908 638.037 404.044C637.354 404.181 636.65 404.181 635.966 404.043C635.307 403.909 634.68 403.646 634.123 403.268C633.575 402.897 633.103 402.424 632.732 401.877L634.155 400.918C634.278 401.099 634.418 401.27 634.574 401.424C635.047 401.9 635.651 402.227 636.308 402.362ZM633.999 396.426C634.168 396.426 634.335 396.459 634.491 396.524C634.648 396.589 634.789 396.684 634.909 396.803C635.028 396.923 635.123 397.065 635.188 397.221C635.253 397.377 635.286 397.545 635.286 397.714C635.286 397.883 635.252 398.05 635.188 398.206C635.123 398.362 635.028 398.504 634.908 398.624C634.789 398.743 634.647 398.838 634.491 398.903C634.334 398.967 634.167 399.001 633.998 399.001C633.656 399 633.329 398.865 633.088 398.623C632.846 398.382 632.711 398.054 632.711 397.713C632.711 397.371 632.847 397.044 633.088 396.803C633.33 396.561 633.657 396.426 633.999 396.426Z" fill="#344BFD"/>
<circle cx="637" cy="443" r="17" fill="#ECEAF8"/>
<path d="M636.998 434.42C632.267 434.42 628.418 438.269 628.418 443C628.418 447.731 632.267 451.579 636.998 451.579C641.729 451.579 645.578 447.731 645.578 443C645.578 438.269 641.729 434.42 636.998 434.42ZM634.001 445.574C633.83 445.578 633.66 445.548 633.501 445.486C633.341 445.423 633.196 445.329 633.074 445.21C632.951 445.09 632.854 444.948 632.787 444.79C632.721 444.632 632.687 444.463 632.687 444.292C632.687 444.121 632.721 443.951 632.788 443.794C632.854 443.636 632.952 443.493 633.074 443.374C633.197 443.254 633.342 443.161 633.502 443.098C633.661 443.036 633.831 443.006 634.002 443.011C634.336 443.02 634.654 443.158 634.887 443.398C635.12 443.637 635.251 443.958 635.25 444.293C635.25 444.627 635.12 444.948 634.886 445.187C634.653 445.426 634.335 445.565 634.001 445.574ZM637.692 439.637C637.234 439.545 636.763 439.545 636.305 439.637C636.088 439.682 635.872 439.75 635.662 439.837C635.461 439.923 635.263 440.029 635.079 440.153C634.901 440.275 634.73 440.415 634.572 440.572C634.415 440.729 634.274 440.899 634.152 441.08L632.73 440.122C633.1 439.574 633.571 439.102 634.119 438.731C634.677 438.355 635.303 438.091 635.963 437.956C636.646 437.818 637.35 437.819 638.034 437.956C638.693 438.09 639.32 438.353 639.877 438.731C640.425 439.103 640.897 439.575 641.268 440.123L639.845 441.081C639.722 440.9 639.582 440.729 639.426 440.575C638.953 440.099 638.349 439.773 637.692 439.637ZM640.001 445.574C639.832 445.574 639.665 445.54 639.509 445.475C639.352 445.411 639.211 445.316 639.091 445.196C638.972 445.077 638.877 444.935 638.812 444.778C638.747 444.622 638.714 444.455 638.714 444.286C638.714 444.117 638.748 443.949 638.812 443.793C638.877 443.637 638.972 443.495 639.092 443.376C639.211 443.256 639.353 443.161 639.509 443.097C639.666 443.032 639.833 442.999 640.002 442.999C640.344 442.999 640.671 443.135 640.912 443.376C641.154 443.618 641.289 443.945 641.289 444.287C641.289 444.628 641.153 444.955 640.912 445.197C640.67 445.438 640.343 445.574 640.001 445.574Z" fill="#FF955A"/>
<path d="M672.877 391.816C672.877 395.771 669.977 398.566 665.371 399.797L664.809 398.707C668.676 397.688 671.11 395.622 671.418 392.941H665.635V391.816H672.877ZM677.535 390.814V399.639H676.164V390.814H677.535ZM677.535 400.395V406.213H667.375V400.395H677.535ZM668.729 401.502V405.088H676.182V401.502H668.729ZM694.428 398.531V399.674H680.189V398.531H683.723V396.334C682.475 395.851 681.771 395.051 681.771 393.996C681.771 392.15 683.881 391.096 687.309 391.096C690.701 391.096 692.828 392.15 692.828 393.996C692.828 395.042 692.134 395.842 690.895 396.316V398.531H694.428ZM687.309 400.869C690.666 400.869 692.67 401.836 692.688 403.629C692.67 405.404 690.666 406.389 687.309 406.389C683.916 406.389 681.912 405.404 681.912 403.629C681.912 401.836 683.916 400.869 687.309 400.869ZM687.309 401.924C684.795 401.941 683.301 402.557 683.318 403.629C683.301 404.684 684.795 405.316 687.309 405.316C689.787 405.316 691.299 404.684 691.299 403.629C691.299 402.557 689.787 401.941 687.309 401.924ZM687.309 392.186C684.76 392.186 683.178 392.871 683.195 393.996C683.178 395.139 684.76 395.807 687.309 395.807C689.84 395.807 691.422 395.139 691.422 393.996C691.422 392.871 689.84 392.186 687.309 392.186ZM685.094 398.531H689.523V396.703C688.864 396.817 688.126 396.879 687.309 396.879C686.491 396.879 685.753 396.817 685.094 396.703V398.531ZM703.762 392.748C703.744 394.664 706.381 396.229 709.141 396.615L708.596 397.705C706.073 397.345 703.718 396.079 702.865 394.242C702.021 396.079 699.675 397.345 697.135 397.705L696.625 396.615C699.385 396.229 701.969 394.664 701.969 392.748V392.713H697.047V391.588H708.719V392.713H703.762V392.748ZM710.037 398.848V399.99H703.674V403.189H702.303V399.99H695.729V398.848H710.037ZM708.438 404.93V406.09H697.557V401.625H698.945V404.93H708.438ZM724.188 390.797V399.674H722.834V390.797H724.188ZM713.676 391.729V397.301C716.26 397.292 718.58 397.116 721.059 396.58L721.27 397.74C718.633 398.268 716.26 398.461 713.553 398.479H712.287V391.729H713.676ZM724.188 400.395V406.213H714.045V400.395H724.188ZM715.398 401.502V405.088H722.834V401.502H715.398ZM741.098 399.041V400.166H726.859V399.041H741.098ZM739.516 404.93V406.09H728.705V401.537H730.094V404.93H739.516ZM733.979 391.359C737.336 391.342 739.498 392.502 739.498 394.453C739.498 396.404 737.336 397.564 733.979 397.564C730.586 397.564 728.441 396.404 728.441 394.453C728.441 392.502 730.586 391.342 733.979 391.359ZM733.979 392.467C731.465 392.467 729.848 393.223 729.865 394.453C729.848 395.684 731.465 396.439 733.979 396.439C736.475 396.439 738.092 395.684 738.092 394.453C738.092 393.223 736.475 392.467 733.979 392.467ZM759.361 391.641V392.801C759.361 394.014 759.361 395.438 758.957 397.389H761.242V398.531H746.934V397.389H757.568C757.99 395.429 757.99 394.014 757.99 392.801V392.783H748.744V391.641H759.361ZM759.432 400.693V406.213H748.691V400.693H759.432ZM750.062 401.783V405.088H758.061V401.783H750.062ZM776.799 403.26V404.42H762.49V403.26H766.041V399.041C764.705 398.347 763.896 397.222 763.896 395.807C763.896 393.381 766.27 391.799 769.609 391.781C772.949 391.799 775.322 393.381 775.322 395.807C775.322 397.195 774.54 398.312 773.248 399.006V403.26H776.799ZM769.609 392.924C767.043 392.906 765.232 394.066 765.232 395.807C765.232 397.547 767.043 398.725 769.609 398.725C772.158 398.725 773.986 397.547 773.986 395.807C773.986 394.066 772.158 392.906 769.609 392.924ZM767.395 403.26H771.859V399.533C771.183 399.718 770.427 399.814 769.609 399.814C768.81 399.814 768.062 399.727 767.395 399.551V403.26ZM782.477 391.377C784.814 391.395 786.52 392.801 786.52 394.84C786.52 396.879 784.814 398.285 782.477 398.285C780.104 398.285 778.416 396.879 778.416 394.84C778.416 392.801 780.104 391.395 782.477 391.377ZM782.477 392.537C780.912 392.537 779.752 393.486 779.77 394.84C779.752 396.211 780.912 397.16 782.477 397.16C784.023 397.16 785.184 396.211 785.184 394.84C785.184 393.486 784.023 392.537 782.477 392.537ZM790.949 390.797V398.83H789.578V390.797H790.949ZM790.949 399.586V403.348H782.178V405.105H791.512V406.213H780.824V402.311H789.578V400.693H780.789V399.586H790.949ZM806.488 390.797V406.459H805.1V390.797H806.488ZM798.174 392.01C800.494 392.027 802.164 394.137 802.164 397.459C802.164 400.781 800.494 402.891 798.174 402.891C795.836 402.891 794.184 400.781 794.184 397.459C794.184 394.137 795.836 392.027 798.174 392.01ZM798.174 393.24C796.609 393.258 795.52 394.91 795.52 397.459C795.52 400.008 796.609 401.66 798.174 401.66C799.738 401.66 800.828 400.008 800.828 397.459C800.828 394.91 799.738 393.258 798.174 393.24ZM825.771 390.797V397.16H828.303V398.32H825.771V406.424H824.4V390.797H825.771ZM821.729 392.484C821.729 396.914 819.654 400.939 814.557 403.453L813.783 402.363C817.826 400.351 820.023 397.345 820.34 393.645H814.504V392.484H821.729ZM834.525 393.768C834.525 395.807 836.055 397.635 838.357 398.391L837.707 399.48C835.905 398.892 834.543 397.644 833.875 396.07C833.198 397.863 831.757 399.261 829.885 399.938L829.182 398.83C831.52 398.039 833.154 396.018 833.172 393.768V393.1H829.604V391.957H838.041V393.1H834.525V393.768ZM841.451 390.797V394.787H843.807V395.947H841.451V400.236H840.08V390.797H841.451ZM836.441 400.658C839.658 400.658 841.592 401.713 841.592 403.506C841.592 405.334 839.658 406.389 836.441 406.389C833.225 406.389 831.256 405.334 831.256 403.506C831.256 401.713 833.225 400.658 836.441 400.658ZM836.441 401.766C834.086 401.766 832.627 402.416 832.645 403.506C832.627 404.631 834.086 405.281 836.441 405.281C838.814 405.281 840.256 404.631 840.256 403.506C840.256 402.416 838.814 401.766 836.441 401.766ZM862.264 390.797V399.955H860.875V395.877H857.711V394.717H860.875V390.797H862.264ZM862.264 400.729V406.213H852.051V400.729H862.264ZM853.422 401.836V405.088H860.91V401.836H853.422ZM854.74 393.574C854.74 395.596 856.305 397.547 858.59 398.355L857.869 399.445C856.103 398.812 854.74 397.494 854.072 395.877C853.396 397.679 851.954 399.12 850.1 399.797L849.379 398.707C851.682 397.881 853.352 395.807 853.352 393.574V392.959H849.818V391.816H858.238V392.959H854.74V393.574ZM872.705 392.256C872.705 394.453 875.588 396.369 878.4 396.756L877.838 397.881C875.412 397.477 873.013 396.132 872.002 394.207C871 396.141 868.592 397.477 866.166 397.881L865.604 396.756C868.416 396.369 871.281 394.488 871.281 392.256V391.359H872.705V392.256ZM879.104 399.604V400.764H872.635V406.424H871.281V400.764H864.865V399.604H879.104ZM892.516 390.797V397.16H895.047V398.32H892.516V406.424H891.145V390.797H892.516ZM888.473 392.484C888.473 396.914 886.398 400.939 881.301 403.453L880.527 402.363C884.57 400.351 886.768 397.345 887.084 393.645H881.248V392.484H888.473ZM913.152 394.84V395.947H908.301V397.934H914.734V399.076H900.496V397.934H906.93V395.947H902.447V391.148H903.818V394.84H913.152ZM913.17 400.641V401.748H910.744V405.088H913.293V406.213H901.955V405.088H904.504V401.748H902.096V400.641H913.17ZM905.875 405.088H909.391V401.748H905.875V405.088ZM920.447 391.729C922.82 391.729 924.543 393.223 924.561 395.402C924.543 397.582 922.82 399.076 920.447 399.076C918.074 399.076 916.334 397.582 916.352 395.402C916.334 393.223 918.074 391.729 920.447 391.729ZM920.447 392.906C918.865 392.889 917.688 393.943 917.705 395.402C917.688 396.879 918.865 397.898 920.447 397.916C922.047 397.898 923.207 396.879 923.207 395.402C923.207 393.943 922.047 392.889 920.447 392.906ZM928.27 390.797V394.576H930.625V395.719H928.27V399.709H926.898V390.797H928.27ZM921.186 401.273C921.168 402.671 921.915 404.139 923.418 405C924.912 404.06 925.668 402.478 925.686 401.273V400.395H927.039V401.273C927.039 402.891 928.199 404.508 930.221 405.193L929.518 406.248C927.962 405.677 926.881 404.578 926.354 403.26C925.853 404.534 924.903 405.765 923.436 406.371C921.924 405.782 920.975 404.631 920.518 403.312C919.938 404.587 918.865 405.677 917.389 406.248L916.686 405.193C918.654 404.473 919.867 402.785 919.867 401.273V400.395H921.186V401.273ZM935.811 392.01C937.938 392.027 939.467 393.847 939.695 396.773H943.193V390.797H944.564V406.459H943.193V397.916H939.713C939.546 400.975 937.99 402.891 935.811 402.891C933.508 402.891 931.891 400.781 931.891 397.459C931.891 394.137 933.508 392.027 935.811 392.01ZM935.811 393.24C934.264 393.258 933.209 394.91 933.209 397.459C933.209 400.008 934.264 401.66 935.811 401.66C937.34 401.66 938.412 400.008 938.412 397.459C938.412 394.91 937.34 393.258 935.811 393.24ZM961.475 403.26V404.42H947.166V403.26H950.717V399.041C949.381 398.347 948.572 397.222 948.572 395.807C948.572 393.381 950.945 391.799 954.285 391.781C957.625 391.799 959.998 393.381 959.998 395.807C959.998 397.195 959.216 398.312 957.924 399.006V403.26H961.475ZM954.285 392.924C951.719 392.906 949.908 394.066 949.908 395.807C949.908 397.547 951.719 398.725 954.285 398.725C956.834 398.725 958.662 397.547 958.662 395.807C958.662 394.066 956.834 392.906 954.285 392.924ZM952.07 403.26H956.535V399.533C955.858 399.718 955.103 399.814 954.285 399.814C953.485 399.814 952.738 399.727 952.07 399.551V403.26ZM964.375 405.105C963.76 405.105 963.232 404.596 963.25 403.963C963.232 403.348 963.76 402.838 964.375 402.838C964.99 402.838 965.5 403.348 965.5 403.963C965.5 404.596 964.99 405.105 964.375 405.105Z" fill="black"/>
<path d="M672.877 435.816C672.877 439.771 669.977 442.566 665.371 443.797L664.809 442.707C668.676 441.688 671.11 439.622 671.418 436.941H665.635V435.816H672.877ZM677.535 434.814V443.639H676.164V434.814H677.535ZM677.535 444.395V450.213H667.375V444.395H677.535ZM668.729 445.502V449.088H676.182V445.502H668.729ZM694.428 442.531V443.674H680.189V442.531H683.723V440.334C682.475 439.851 681.771 439.051 681.771 437.996C681.771 436.15 683.881 435.096 687.309 435.096C690.701 435.096 692.828 436.15 692.828 437.996C692.828 439.042 692.134 439.842 690.895 440.316V442.531H694.428ZM687.309 444.869C690.666 444.869 692.67 445.836 692.688 447.629C692.67 449.404 690.666 450.389 687.309 450.389C683.916 450.389 681.912 449.404 681.912 447.629C681.912 445.836 683.916 444.869 687.309 444.869ZM687.309 445.924C684.795 445.941 683.301 446.557 683.318 447.629C683.301 448.684 684.795 449.316 687.309 449.316C689.787 449.316 691.299 448.684 691.299 447.629C691.299 446.557 689.787 445.941 687.309 445.924ZM687.309 436.186C684.76 436.186 683.178 436.871 683.195 437.996C683.178 439.139 684.76 439.807 687.309 439.807C689.84 439.807 691.422 439.139 691.422 437.996C691.422 436.871 689.84 436.186 687.309 436.186ZM685.094 442.531H689.523V440.703C688.864 440.817 688.126 440.879 687.309 440.879C686.491 440.879 685.753 440.817 685.094 440.703V442.531ZM703.762 436.748C703.744 438.664 706.381 440.229 709.141 440.615L708.596 441.705C706.073 441.345 703.718 440.079 702.865 438.242C702.021 440.079 699.675 441.345 697.135 441.705L696.625 440.615C699.385 440.229 701.969 438.664 701.969 436.748V436.713H697.047V435.588H708.719V436.713H703.762V436.748ZM710.037 442.848V443.99H703.674V447.189H702.303V443.99H695.729V442.848H710.037ZM708.438 448.93V450.09H697.557V445.625H698.945V448.93H708.438ZM724.188 434.797V443.674H722.834V434.797H724.188ZM713.676 435.729V441.301C716.26 441.292 718.58 441.116 721.059 440.58L721.27 441.74C718.633 442.268 716.26 442.461 713.553 442.479H712.287V435.729H713.676ZM724.188 444.395V450.213H714.045V444.395H724.188ZM715.398 445.502V449.088H722.834V445.502H715.398ZM741.098 443.041V444.166H726.859V443.041H741.098ZM739.516 448.93V450.09H728.705V445.537H730.094V448.93H739.516ZM733.979 435.359C737.336 435.342 739.498 436.502 739.498 438.453C739.498 440.404 737.336 441.564 733.979 441.564C730.586 441.564 728.441 440.404 728.441 438.453C728.441 436.502 730.586 435.342 733.979 435.359ZM733.979 436.467C731.465 436.467 729.848 437.223 729.865 438.453C729.848 439.684 731.465 440.439 733.979 440.439C736.475 440.439 738.092 439.684 738.092 438.453C738.092 437.223 736.475 436.467 733.979 436.467ZM759.59 442.936V444.061H754.738V447.33H761.242V448.473H746.934V447.33H753.367V444.061H748.779V436.08H759.414V437.223H750.186V439.455H759.08V440.58H750.186V442.936H759.59ZM776.799 447.26V448.42H762.49V447.26H766.041V443.041C764.705 442.347 763.896 441.222 763.896 439.807C763.896 437.381 766.27 435.799 769.609 435.781C772.949 435.799 775.322 437.381 775.322 439.807C775.322 441.195 774.54 442.312 773.248 443.006V447.26H776.799ZM769.609 436.924C767.043 436.906 765.232 438.066 765.232 439.807C765.232 441.547 767.043 442.725 769.609 442.725C772.158 442.725 773.986 441.547 773.986 439.807C773.986 438.066 772.158 436.906 769.609 436.924ZM767.395 447.26H771.859V443.533C771.183 443.718 770.427 443.814 769.609 443.814C768.81 443.814 768.062 443.727 767.395 443.551V447.26ZM782.477 435.377C784.814 435.395 786.52 436.801 786.52 438.84C786.52 440.879 784.814 442.285 782.477 442.285C780.104 442.285 778.416 440.879 778.416 438.84C778.416 436.801 780.104 435.395 782.477 435.377ZM782.477 436.537C780.912 436.537 779.752 437.486 779.77 438.84C779.752 440.211 780.912 441.16 782.477 441.16C784.023 441.16 785.184 440.211 785.184 438.84C785.184 437.486 784.023 436.537 782.477 436.537ZM790.949 434.797V442.83H789.578V434.797H790.949ZM790.949 443.586V447.348H782.178V449.105H791.512V450.213H780.824V446.311H789.578V444.693H780.789V443.586H790.949ZM806.488 434.797V450.459H805.1V434.797H806.488ZM798.174 436.01C800.494 436.027 802.164 438.137 802.164 441.459C802.164 444.781 800.494 446.891 798.174 446.891C795.836 446.891 794.184 444.781 794.184 441.459C794.184 438.137 795.836 436.027 798.174 436.01ZM798.174 437.24C796.609 437.258 795.52 438.91 795.52 441.459C795.52 444.008 796.609 445.66 798.174 445.66C799.738 445.66 800.828 444.008 800.828 441.459C800.828 438.91 799.738 437.258 798.174 437.24ZM825.771 434.797V441.16H828.303V442.32H825.771V450.424H824.4V434.797H825.771ZM821.729 436.484C821.729 440.914 819.654 444.939 814.557 447.453L813.783 446.363C817.826 444.351 820.023 441.345 820.34 437.645H814.504V436.484H821.729ZM834.525 437.768C834.525 439.807 836.055 441.635 838.357 442.391L837.707 443.48C835.905 442.892 834.543 441.644 833.875 440.07C833.198 441.863 831.757 443.261 829.885 443.938L829.182 442.83C831.52 442.039 833.154 440.018 833.172 437.768V437.1H829.604V435.957H838.041V437.1H834.525V437.768ZM841.451 434.797V438.787H843.807V439.947H841.451V444.236H840.08V434.797H841.451ZM836.441 444.658C839.658 444.658 841.592 445.713 841.592 447.506C841.592 449.334 839.658 450.389 836.441 450.389C833.225 450.389 831.256 449.334 831.256 447.506C831.256 445.713 833.225 444.658 836.441 444.658ZM836.441 445.766C834.086 445.766 832.627 446.416 832.645 447.506C832.627 448.631 834.086 449.281 836.441 449.281C838.814 449.281 840.256 448.631 840.256 447.506C840.256 446.416 838.814 445.766 836.441 445.766ZM862.264 434.797V443.955H860.875V439.877H857.711V438.717H860.875V434.797H862.264ZM862.264 444.729V450.213H852.051V444.729H862.264ZM853.422 445.836V449.088H860.91V445.836H853.422ZM854.74 437.574C854.74 439.596 856.305 441.547 858.59 442.355L857.869 443.445C856.103 442.812 854.74 441.494 854.072 439.877C853.396 441.679 851.954 443.12 850.1 443.797L849.379 442.707C851.682 441.881 853.352 439.807 853.352 437.574V436.959H849.818V435.816H858.238V436.959H854.74V437.574ZM872.705 436.256C872.705 438.453 875.588 440.369 878.4 440.756L877.838 441.881C875.412 441.477 873.013 440.132 872.002 438.207C871 440.141 868.592 441.477 866.166 441.881L865.604 440.756C868.416 440.369 871.281 438.488 871.281 436.256V435.359H872.705V436.256ZM879.104 443.604V444.764H872.635V450.424H871.281V444.764H864.865V443.604H879.104ZM892.516 434.797V441.16H895.047V442.32H892.516V450.424H891.145V434.797H892.516ZM888.473 436.484C888.473 440.914 886.398 444.939 881.301 447.453L880.527 446.363C884.57 444.351 886.768 441.345 887.084 437.645H881.248V436.484H888.473ZM912.713 434.779V438.629H915.068V439.807H912.713V443.656H911.342V434.779H912.713ZM902.641 435.658V441.248C904.864 441.239 907.158 441.081 909.689 440.562L909.865 441.723C907.211 442.25 904.855 442.426 902.5 442.426H901.252V435.658H902.641ZM912.994 444.447V445.59H908.564C908.626 447.304 910.99 448.868 913.592 449.299L913.047 450.371C910.771 449.958 908.723 448.789 907.844 447.189C906.982 448.807 904.917 449.94 902.641 450.336L902.096 449.281C904.715 448.868 907.044 447.339 907.123 445.59H902.693V444.447H912.994ZM920.447 435.729C922.82 435.729 924.543 437.223 924.561 439.402C924.543 441.582 922.82 443.076 920.447 443.076C918.074 443.076 916.334 441.582 916.352 439.402C916.334 437.223 918.074 435.729 920.447 435.729ZM920.447 436.906C918.865 436.889 917.688 437.943 917.705 439.402C917.688 440.879 918.865 441.898 920.447 441.916C922.047 441.898 923.207 440.879 923.207 439.402C923.207 437.943 922.047 436.889 920.447 436.906ZM928.27 434.797V438.576H930.625V439.719H928.27V443.709H926.898V434.797H928.27ZM921.186 445.273C921.168 446.671 921.915 448.139 923.418 449C924.912 448.06 925.668 446.478 925.686 445.273V444.395H927.039V445.273C927.039 446.891 928.199 448.508 930.221 449.193L929.518 450.248C927.962 449.677 926.881 448.578 926.354 447.26C925.853 448.534 924.903 449.765 923.436 450.371C921.924 449.782 920.975 448.631 920.518 447.312C919.938 448.587 918.865 449.677 917.389 450.248L916.686 449.193C918.654 448.473 919.867 446.785 919.867 445.273V444.395H921.186V445.273ZM935.811 436.01C937.938 436.027 939.467 437.847 939.695 440.773H943.193V434.797H944.564V450.459H943.193V441.916H939.713C939.546 444.975 937.99 446.891 935.811 446.891C933.508 446.891 931.891 444.781 931.891 441.459C931.891 438.137 933.508 436.027 935.811 436.01ZM935.811 437.24C934.264 437.258 933.209 438.91 933.209 441.459C933.209 444.008 934.264 445.66 935.811 445.66C937.34 445.66 938.412 444.008 938.412 441.459C938.412 438.91 937.34 437.258 935.811 437.24ZM961.475 447.26V448.42H947.166V447.26H950.717V443.041C949.381 442.347 948.572 441.222 948.572 439.807C948.572 437.381 950.945 435.799 954.285 435.781C957.625 435.799 959.998 437.381 959.998 439.807C959.998 441.195 959.216 442.312 957.924 443.006V447.26H961.475ZM954.285 436.924C951.719 436.906 949.908 438.066 949.908 439.807C949.908 441.547 951.719 442.725 954.285 442.725C956.834 442.725 958.662 441.547 958.662 439.807C958.662 438.066 956.834 436.906 954.285 436.924ZM952.07 447.26H956.535V443.533C955.858 443.718 955.103 443.814 954.285 443.814C953.485 443.814 952.738 443.727 952.07 443.551V447.26ZM964.375 449.105C963.76 449.105 963.232 448.596 963.25 447.963C963.232 447.348 963.76 446.838 964.375 446.838C964.99 446.838 965.5 447.348 965.5 447.963C965.5 448.596 964.99 449.105 964.375 449.105Z" fill="black"/>
<path d="M492.391 440.997V444.6H495.595V440.997H496.807V450.659H491.146V440.997H492.391ZM492.391 449.58H495.595V445.662H492.391V449.58ZM503.248 439.586V454.345H501.986V446.525H499.928V453.598H498.683V439.901H499.928V445.446H501.986V439.586H503.248ZM517.525 439.603V450.858H516.214V447.688H513.657V446.625H516.214V444.616H513.657V443.537H516.214V439.603H517.525ZM513.657 441.412V442.475H505.307V441.412H508.893V439.586H510.188V441.412H513.657ZM509.523 443.288C511.499 443.288 512.894 444.417 512.894 446.11C512.894 447.787 511.499 448.933 509.523 448.933C507.548 448.933 506.17 447.787 506.187 446.11C506.17 444.417 507.548 443.288 509.523 443.288ZM509.523 444.317C508.262 444.334 507.398 445.048 507.398 446.11C507.398 447.173 508.262 447.887 509.523 447.887C510.785 447.887 511.648 447.173 511.665 446.11C511.648 445.048 510.785 444.334 509.523 444.317ZM517.857 452.934V454.029H507.979V449.862H509.291V452.934H517.857ZM525.262 444.118C525.262 446.625 527.088 449.165 529.263 450.111L528.532 451.141C526.806 450.352 525.312 448.65 524.631 446.608C523.934 448.775 522.448 450.659 520.763 451.506L519.982 450.477C522.091 449.464 523.934 446.675 523.95 444.118V442.192H520.464V441.113H528.781V442.192H525.262V444.118ZM532.151 439.586V454.345H530.84V439.586H532.151Z" fill="#999999"/>
<path d="M502.767 488.586V503.378H501.455V488.586H502.767ZM494.914 489.731C497.105 489.748 498.683 491.74 498.683 494.878C498.683 498.016 497.105 500.008 494.914 500.008C492.706 500.008 491.146 498.016 491.146 494.878C491.146 491.74 492.706 489.748 494.914 489.731ZM494.914 490.894C493.437 490.91 492.407 492.471 492.407 494.878C492.407 497.285 493.437 498.846 494.914 498.846C496.392 498.846 497.421 497.285 497.421 494.878C497.421 492.471 496.392 490.91 494.914 490.894ZM516.712 488.586V494.43H519.186V495.525H516.712V503.378H515.417V488.586H516.712ZM512.827 490.03V491.109H507.232V498.58C509.905 498.58 511.798 498.456 513.989 498.049L514.155 499.178C511.848 499.593 509.905 499.676 507.1 499.676H505.938V490.03H512.827ZM524.05 489.482C525.295 489.474 526.357 489.939 527.038 490.728H530.906V488.586H532.218V497.335H530.906V495.227H527.055C526.357 496.015 525.295 496.48 524.05 496.472C521.842 496.488 520.215 495.044 520.215 492.985C520.215 490.91 521.842 489.466 524.05 489.482ZM524.05 490.611C522.539 490.595 521.46 491.591 521.46 492.985C521.46 494.363 522.539 495.359 524.05 495.359C525.511 495.359 526.606 494.363 526.606 492.985C526.606 491.591 525.511 490.595 524.05 490.611ZM527.32 497.684C530.375 497.684 532.268 498.713 532.268 500.489C532.268 502.282 530.375 503.312 527.32 503.312C524.249 503.312 522.373 502.282 522.373 500.489C522.373 498.713 524.249 497.684 527.32 497.684ZM527.32 498.696C525.062 498.696 523.651 499.377 523.651 500.489C523.651 501.602 525.062 502.266 527.32 502.266C529.595 502.266 530.989 501.602 530.989 500.489C530.989 499.377 529.595 498.696 527.32 498.696ZM527.669 491.79C527.793 492.155 527.868 492.554 527.868 492.985C527.868 493.4 527.793 493.791 527.669 494.147H530.906V491.79H527.669Z" fill="#999999"/>
<path d="M495.595 540.392C495.595 542.317 497.039 544.044 499.214 544.758L498.6 545.787C496.898 545.231 495.611 544.052 494.98 542.566C494.341 544.26 492.98 545.58 491.212 546.219L490.548 545.173C492.756 544.426 494.3 542.517 494.316 540.392V539.761H490.946V538.682H498.915V539.761H495.595V540.392ZM502.136 537.586V541.354H504.36V542.45H502.136V546.501H500.841V537.586H502.136ZM497.404 546.899C500.442 546.899 502.269 547.896 502.269 549.589C502.269 551.315 500.442 552.312 497.404 552.312C494.366 552.312 492.507 551.315 492.507 549.589C492.507 547.896 494.366 546.899 497.404 546.899ZM497.404 547.945C495.18 547.945 493.802 548.56 493.818 549.589C493.802 550.651 495.18 551.266 497.404 551.266C499.646 551.266 501.007 550.651 501.007 549.589C501.007 548.56 499.646 547.945 497.404 547.945ZM510.486 541.554C510.486 544.227 512.196 546.916 514.338 547.896L513.558 548.958C511.881 548.095 510.495 546.327 509.839 544.227C509.183 546.435 507.797 548.327 506.12 549.224L505.273 548.178C507.432 547.115 509.158 544.276 509.158 541.554V538.864H510.486V541.554ZM517.525 537.586V552.378H516.23V543.695H512.728V542.633H516.23V537.586H517.525ZM526.706 537.968C529.86 537.984 531.902 539.113 531.902 540.923C531.902 542.732 529.86 543.845 526.706 543.845C523.552 543.845 521.493 542.732 521.493 540.923C521.493 539.113 523.552 537.984 526.706 537.968ZM526.706 539.03C524.415 539.03 522.871 539.761 522.888 540.923C522.871 542.085 524.415 542.799 526.706 542.799C528.997 542.799 530.524 542.085 530.524 540.923C530.524 539.761 528.997 539.03 526.706 539.03ZM533.446 544.99V546.069H529.993V549.141H528.698V546.069H525.976V549.141H524.681V546.069H519.982V544.99H533.446ZM532.052 550.934V552.029H521.643V547.896H522.954V550.934H532.052Z" fill="#999999"/>
<path d="M502.833 586.586V595.385H501.521V591.517H498.55V590.438H501.521V586.586H502.833ZM497.936 595.85C501.007 595.85 502.883 596.846 502.883 598.589C502.883 600.332 501.007 601.328 497.936 601.345C494.864 601.328 492.988 600.332 492.988 598.589C492.988 596.846 494.864 595.85 497.936 595.85ZM497.936 596.862C495.678 596.862 494.267 597.51 494.283 598.589C494.267 599.651 495.678 600.299 497.936 600.299C500.193 600.299 501.588 599.651 501.588 598.589C501.588 597.51 500.193 596.862 497.936 596.862ZM495.728 589.292C495.728 591.218 497.205 593.044 499.363 593.791L498.683 594.837C497.022 594.239 495.736 593.002 495.113 591.467C494.466 593.202 493.096 594.588 491.345 595.252L490.664 594.206C492.855 593.409 494.416 591.417 494.416 589.309V588.761H491.079V587.665H499.031V588.761H495.728V589.292ZM512.645 591.832V593.94H518.737V595.02H505.29V593.94H511.366V591.832H512.645ZM512.014 596.231C515.185 596.231 517.077 597.128 517.094 598.771C517.077 600.415 515.185 601.312 512.014 601.312C508.81 601.312 506.917 600.415 506.917 598.771C506.917 597.128 508.81 596.231 512.014 596.231ZM512.014 597.261C509.623 597.261 508.229 597.809 508.245 598.771C508.229 599.734 509.623 600.299 512.014 600.299C514.371 600.299 515.782 599.734 515.782 598.771C515.782 597.809 514.371 597.261 512.014 597.261ZM517.542 587.283V588.346H512.86C512.943 589.989 515.417 591.259 517.99 591.533L517.509 592.562C515.093 592.272 512.827 591.218 512.014 589.574C511.208 591.218 508.951 592.272 506.519 592.562L506.037 591.533C508.61 591.259 511.067 590.006 511.167 588.346H506.519V587.283H517.542ZM532.151 586.603V597.809H530.84V596.281H527.785V595.335H530.84V586.603H532.151ZM532.517 599.934V601.029H522.024V596.713H523.336V599.934H532.517ZM519.899 593.442C522.655 593.426 526.341 593.409 529.512 593.011L529.595 593.957C528.275 594.165 526.897 594.297 525.544 594.372V597.294H524.232V594.438C522.738 594.505 521.319 594.513 520.082 594.505L519.899 593.442ZM524.747 587.2C526.905 587.2 528.383 588.229 528.399 589.773C528.383 591.351 526.905 592.33 524.747 592.33C522.572 592.33 521.095 591.351 521.095 589.773C521.095 588.229 522.572 587.2 524.747 587.2ZM524.747 588.196C523.303 588.18 522.323 588.827 522.34 589.773C522.323 590.736 523.303 591.367 524.747 591.367C526.142 591.367 527.138 590.736 527.154 589.773C527.138 588.827 526.142 588.18 524.747 588.196Z" fill="#999999"/>
<defs>
<filter id="filter0_di_3592_7980" x="193.9" y="208.891" width="431.2" height="342.209" filterUnits="userSpaceOnUse" color-interpolation-filters="sRGB">
<feFlood flood-opacity="0" result="BackgroundImageFix"/>
<feColorMatrix in="SourceAlpha" type="matrix" values="0 0 0 0 0 0 0 0 0 0 0 0 0 0 0 0 0 0 127 0" result="hardAlpha"/>
<feMorphology radius="3" operator="erode" in="SourceAlpha" result="effect1_dropShadow_3592_7980"/>
<feOffset dx="2" dy="2"/>
<feGaussianBlur stdDeviation="8.05"/>
<feComposite in2="hardAlpha" operator="out"/>
<feColorMatrix type="matrix" values="0 0 0 0 0 0 0 0 0 0 0 0 0 0 0 0 0 0 0.13 0"/>
<feBlend mode="normal" in2="BackgroundImageFix" result="effect1_dropShadow_3592_7980"/>
<feBlend mode="normal" in="SourceGraphic" in2="effect1_dropShadow_3592_7980" result="shape"/>
<feColorMatrix in="SourceAlpha" type="matrix" values="0 0 0 0 0 0 0 0 0 0 0 0 0 0 0 0 0 0 127 0" result="hardAlpha"/>
<feMorphology radius="9" operator="dilate" in="SourceAlpha" result="effect2_innerShadow_3592_7980"/>
<feOffset dx="14" dy="18"/>
<feGaussianBlur stdDeviation="8.55"/>
<feComposite in2="hardAlpha" operator="arithmetic" k2="-1" k3="1"/>
<feColorMatrix type="matrix" values="0 0 0 0 1 0 0 0 0 1 0 0 0 0 1 0 0 0 0.27 0"/>
<feBlend mode="normal" in2="shape" result="effect2_innerShadow_3592_7980"/>
</filter>
<filter id="filter1_di_3592_7980" x="634.923" y="74.9201" width="472.856" height="375.058" filterUnits="userSpaceOnUse" color-interpolation-filters="sRGB">
<feFlood flood-opacity="0" result="BackgroundImageFix"/>
<feColorMatrix in="SourceAlpha" type="matrix" values="0 0 0 0 0 0 0 0 0 0 0 0 0 0 0 0 0 0 127 0" result="hardAlpha"/>
<feMorphology radius="3" operator="erode" in="SourceAlpha" result="effect1_dropShadow_3592_7980"/>
<feOffset dx="2" dy="2"/>
<feGaussianBlur stdDeviation="8.05"/>
<feComposite in2="hardAlpha" operator="out"/>
<feColorMatrix type="matrix" values="0 0 0 0 0 0 0 0 0 0 0 0 0 0 0 0 0 0 0.13 0"/>
<feBlend mode="normal" in2="BackgroundImageFix" result="effect1_dropShadow_3592_7980"/>
<feBlend mode="normal" in="SourceGraphic" in2="effect1_dropShadow_3592_7980" result="shape"/>
<feColorMatrix in="SourceAlpha" type="matrix" values="0 0 0 0 0 0 0 0 0 0 0 0 0 0 0 0 0 0 127 0" result="hardAlpha"/>
<feMorphology radius="9" operator="dilate" in="SourceAlpha" result="effect2_innerShadow_3592_7980"/>
<feOffset dx="14" dy="18"/>
<feGaussianBlur stdDeviation="8.55"/>
<feComposite in2="hardAlpha" operator="arithmetic" k2="-1" k3="1"/>
<feColorMatrix type="matrix" values="0 0 0 0 1 0 0 0 0 1 0 0 0 0 1 0 0 0 0.27 0"/>
<feBlend mode="normal" in2="shape" result="effect2_innerShadow_3592_7980"/>
</filter>
<filter id="filter2_di_3592_7980" x="421.9" y="350.9" width="605.2" height="374.2" filterUnits="userSpaceOnUse" color-interpolation-filters="sRGB">
<feFlood flood-opacity="0" result="BackgroundImageFix"/>
<feColorMatrix in="SourceAlpha" type="matrix" values="0 0 0 0 0 0 0 0 0 0 0 0 0 0 0 0 0 0 127 0" result="hardAlpha"/>
<feMorphology radius="3" operator="erode" in="SourceAlpha" result="effect1_dropShadow_3592_7980"/>
<feOffset dx="2" dy="2"/>
<feGaussianBlur stdDeviation="8.05"/>
<feComposite in2="hardAlpha" operator="out"/>
<feColorMatrix type="matrix" values="0 0 0 0 0 0 0 0 0 0 0 0 0 0 0 0 0 0 0.13 0"/>
<feBlend mode="normal" in2="BackgroundImageFix" result="effect1_dropShadow_3592_7980"/>
<feBlend mode="normal" in="SourceGraphic" in2="effect1_dropShadow_3592_7980" result="shape"/>
<feColorMatrix in="SourceAlpha" type="matrix" values="0 0 0 0 0 0 0 0 0 0 0 0 0 0 0 0 0 0 127 0" result="hardAlpha"/>
<feMorphology radius="9" operator="dilate" in="SourceAlpha" result="effect2_innerShadow_3592_7980"/>
<feOffset dx="14" dy="18"/>
<feGaussianBlur stdDeviation="8.55"/>
<feComposite in2="hardAlpha" operator="arithmetic" k2="-1" k3="1"/>
<feColorMatrix type="matrix" values="0 0 0 0 1 0 0 0 0 1 0 0 0 0 1 0 0 0 0.27 0"/>
<feBlend mode="normal" in2="shape" result="effect2_innerShadow_3592_7980"/>
</filter>
</defs>
</svg>
